<svg xmlns="http://www.w3.org/2000/svg" width="400" height="400" viewBox="0 0 300 300"><defs><clipPath id="c"><path d="M.238.238h299.524V300H.238Zm0 0"/></clipPath><clipPath id="b"><path d="M0 0h300v300H0z"/></clipPath><filter id="d" width="100%" height="100%" x="0%" y="0%" filterUnits="objectBoundingBox"><feColorMatrix in="SourceGraphic" values="0 0 0 0 1 0 0 0 0 1 0 0 0 0 1 0 0 0 1 0"/></filter></defs><g mask="url(#a)"><g clip-path="url(#b)"><g clip-path="url(#c)"><path d="M97.523 129.059c-1.546-.465-3.125-.86-4.64-1.414-6.258-2.29-12.258-5.149-18.164-8.215-3.285-1.703-6.63-3.25-10.078-4.59a247 247 0 0 1-30.246-14.145c-3.04-1.68-6.211-3.09-9.461-4.308-7.946-2.985-15.692-6.38-22.887-10.934-.336-.21-.692-.398-1.004-.64-.418-.329-.781-.743-.516-1.31.274-.585.805-.519 1.332-.386 1.168.29 2.254.774 3.309 1.34a630 630 0 0 0 40.676 20.027c9.281 4.164 18.36 8.79 27.636 12.954 7.153 3.21 14.41 6.19 21.493 9.566.945.45 1.851.973 2.777 1.465zm77.157 77.785c3.691 10.453 7.168 20.992 11.156 31.332 3.644 9.433 8.16 18.52 11.77 27.98 3.445 9.04 7.296 17.895 11.785 26.469.386.738.71 2.094 1.82 1.582 1.098-.508.309-1.644-.024-2.406-1.5-3.438-3.023-6.871-4.64-10.258-2.746-5.742-5.774-11.348-8.477-17.117-3.535-7.54-5.941-15.488-8.843-23.262-3.973-10.656-7.997-21.289-11.989-31.937-.62-1.649-1.172-3.325-1.789-4.977-.133-.363-.375-.766-.867-.66-.492.101-.523.523-.496 1.086.172.633.332 1.418.594 2.168m1.16-113.852c1.289-2.472 2.625-4.918 3.82-7.433 2.004-4.22 4.285-8.282 6.766-12.235 4.652-7.422 9.226-14.894 13.105-22.761 7.45-15.106 15.34-29.965 24.492-44.125.922-1.43 1.704-2.958 2.446-4.489.226-.46.84-1.215-.008-1.613-.715-.332-1.106.36-1.426.906-2.844 4.79-6.101 9.332-8.605 14.328-4.684 9.356-9.727 18.512-14.91 27.61-8.95 15.707-17.176 31.828-26.438 47.367-.437.73-.84 1.492-1.14 2.285-.223.586-.067 1.133.667 1.262.692-.082.97-.602 1.23-1.102m34.45 80.485c10.374 6.277 20.98 12.113 32.065 17.062 11.27 5.027 22.633 9.832 33.805 15.086 6.996 3.293 13.93 6.734 21.184 9.445.683.254 1.664 1.055 2.094.18.328-.676-.848-1.059-1.47-1.324-4.09-1.742-7.886-4.063-11.91-5.934-8.203-3.82-16.824-6.683-24.992-10.523-17.289-8.13-34.66-16.117-51.347-25.461-.762-.426-1.504-.992-2.793-.696 1.082 1.188 2.32 1.536 3.363 2.165M87.925 299.723c.554.254.828-.188 1.054-.586.31-.543.594-1.102.872-1.66 3.05-6.118 5.503-12.485 8.043-18.82 5.445-13.579 12.062-26.618 18.402-39.782 5.281-10.969 9.406-22.45 14.894-33.324.18-.352.29-.742.395-1.125.105-.387.191-.863-.238-1.063-.567-.261-.82.219-1 .64-.563 1.31-1.067 2.638-1.641 3.938-5.176 11.707-10.945 23.13-16.426 34.692-2.996 6.32-5.164 12.992-8.113 19.344-5.223 11.242-10.32 22.543-15.461 33.824-.426.93-.77 1.894-1.066 2.629-.07.636-.168 1.086.285 1.293M3.41 209.832a622 622 0 0 0 6-2.45c17.016-7.034 34.067-13.995 51.574-19.71 10.606-3.461 20.938-7.598 31.383-11.461 1.598-.59 3.223-1.11 4.828-1.676.442-.156.942-.445.711-.965-.172-.39-.703-.246-1.09-.12-.27.085-.53.195-.8.288-10.293 3.617-20.555 7.328-30.98 10.559-4.36 1.351-8.298 3.703-12.583 5.246a7155 7155 0 0 0-41.34 15.004c-3.254 1.195-6.39 2.687-9.46 4.308-.403.211-.88.41-.805.973.07.531.53.492 1.105.484.383-.125.934-.269 1.457-.48m205.3-83.324c4.454-1.719 8.958-3.328 13.34-5.215 14.052-6.043 28.044-12.223 42.087-18.281 9.504-4.098 18.98-8.246 28.37-12.594.673-.313 1.802-.578 1.391-1.578-.394-.969-1.375-.418-2.105-.2-2.734.833-5.29 2.067-7.84 3.34-5.289 2.637-10.348 5.727-15.8 8.051-19.93 8.485-40.094 16.426-59.747 25.555-.523.242-1.261.254-1.328 1.176.602.168 1.133-.063 1.633-.254m-107.003 57.394c-.977.465-1.973.903-2.871 1.489-4.676 3.039-9.504 5.824-14.379 8.527-4.227 2.344-8.504 4.605-12.504 7.344-7.46 5.11-14.988 10.117-22.922 14.484-5.976 3.293-12.066 6.39-17.703 10.266-1.125.773-2.2 1.617-3.285 2.441-.363.274-.824.602-.512 1.106.274.449.836.351 1.246.191.684-.273 1.36-.594 1.977-.984 12.3-7.79 24.605-15.551 37.266-22.762 9.578-5.457 18.52-11.992 28.261-17.211 1.801-.965 3.52-2.086 5.262-3.16.48-.297.95-.649 1.11-1.301-.044-.668-.497-.644-.946-.43m-.285-66.707c-.606-.93-1.504-1.59-2.414-2.203-10.309-6.992-20.172-14.605-30.461-21.64-11.637-7.957-22.82-16.582-34.2-24.918-.824-.606-1.593-1.301-2.59-1.621-.534-.172-1.179-.446-1.53.199-.317.586.273.914.656 1.222 2.004 1.594 3.941 3.282 6.043 4.73 4.215 2.911 8.582 5.59 12.765 8.536 8.141 5.727 16.239 11.52 24.282 17.387 7.03 5.133 14.437 9.722 21.382 14.976 1.825 1.38 3.868 2.473 5.81 3.7zm18.172 84.953c-2.797 4.29-5.86 8.387-8.938 12.473-3.695 4.902-7.344 9.836-10.855 14.875-4.285 6.152-8.383 12.445-13.02 18.356-3.96 5.054-8.34 9.777-12.117 14.984-1.078 1.484-2.031 3.012-2.613 4.754-.145.426-.465.941.035 1.23.555.328.969-.144 1.242-.582.723-1.152 1.344-2.379 2.117-3.496 5.864-8.46 12.395-16.422 18.578-24.64 8.793-11.68 17.172-23.637 25.399-35.707.777-1.145 1.644-2.29 1.91-3.977-.973.469-1.344 1.125-1.738 1.73M88.766 7.191c2.113 5.34 4.402 10.606 7.09 15.688 3.164 5.988 6.09 12.098 8.523 18.402 3.172 8.23 6.969 16.184 10.316 24.332 3.692 8.989 8.121 17.66 11.45 26.805.253.7.304 2.11 1.433 1.637.887-.375.074-1.414-.207-2.102-1.672-4.105-3.805-8-5.387-12.156-4.21-11.05-8.605-22.04-13.804-32.66-5.528-11.293-10.5-22.817-15.282-34.43-.867-2.102-1.863-4.148-2.835-6.203-.208-.441-.438-.95-1.145-1.047-.727.48-.387 1.14-.152 1.734m50.336 201.16c-.532 1.622-1.012 3.254-1.563 4.868-2.281 6.668-4.45 13.363-5.988 20.258a354 354 0 0 1-4.25 17.03c-2.524 9.15-6.063 17.981-8.547 27.145-.461 1.707-.969 3.387-.969 5.172 0 .442-.11 1.016.48 1.125.66.125.915-.449.973-.949.313-2.621 1.356-5.043 2.02-7.57 1.629-6.207 3.347-12.39 4.992-18.594 1.762-6.652 4.488-12.996 6.18-19.668 2.175-8.594 4.297-17.203 6.761-25.719.5-1.722.782-3.504 1.266-5.726-.91 1.015-1.098 1.843-1.355 2.629m-47.915-72.578c-10.921-3.757-22.105-6.582-33.359-9.109-8.308-1.867-16.61-3.738-24.812-6.027-5.856-1.633-11.707-3.282-17.7-4.364-.445-.082-.894-.171-1.347-.187-.399-.016-.832.055-.918.555-.07.394.195.656.527.777.75.266 1.5.559 2.274.719 5.457 1.105 10.937 2.097 16.375 3.281 16.597 3.625 32.726 9.062 49.265 12.926 3.297.77 6.547 1.816 10.36 1.937-.489-.375-.567-.472-.665-.508m73.176 74.856c.723 6.664 1.414 13.336 2.532 19.95 2.3 13.612 4.417 27.253 6.425 40.913.453 3.078.48 6.254 1.98 9.106.223.422.266 1.183.923 1.027.754-.176.543-.957.402-1.441-.547-1.864-.8-3.778-1.16-5.672-.961-5.024-2.14-10.012-2.875-15.063-1.262-8.656-2.121-17.37-3.395-26.023-1.043-7.078-2.449-14.106-3.699-21.153-.351-1.972-.726-3.941-1.09-5.91-.789 1.485-.195 2.864-.043 4.266m22.39-115.379c2.74-3.559 5.587-7.035 8.185-10.707 4.277-6.031 8.652-11.988 13.343-17.707 6.059-7.39 12.406-14.527 18.809-21.617 1.265-1.403 2.363-2.918 3.144-4.64.176-.388.5-.876-.054-1.204-.422-.25-.75.098-1.04.367-.245.235-.456.504-.68.766-5.21 6.086-10.222 12.34-15.257 18.57a1129 1129 0 0 0-28.129 36.25c-.387.524-.976.977-.828 2.04 1.223-.403 1.867-1.29 2.508-2.118m-19.1-10.465c3.085-11.812 6.535-23.531 9.238-35.45 2.386-10.522 5.496-20.878 7.433-31.507.125-.683.59-1.605-.41-1.894-.879-.25-1.039.718-1.277 1.308-1.227 3.024-1.836 6.215-2.301 9.418-.899 6.184-1.383 12.461-3.121 18.473-3.524 12.168-6.785 24.406-10.117 36.625-.715 2.637-1.13 5.32-1.125 8.094.953-1.563 1.23-3.34 1.68-5.067m-80.688 78.79c-5.692.726-11.426 1.218-17.067 2.245-11.687 2.133-23.418 3.957-35.183 5.598-5.406.754-10.832 1.355-16.164 2.566-.84.192-2.192.395-1.957 1.446.23 1.02 1.465.398 2.23.265 8.957-1.578 17.89-3.297 26.864-4.765 7.515-1.23 15.093-2.067 22.609-3.282 5.887-.949 11.719-2.226 17.582-3.328 2.21-.414 4.441-.73 6.664-1.09-1.93-.468-3.734.106-5.578.344m123.539-.095a50896 50896 0 0 0 52.851 11.165c6.07 1.28 12.196 2.21 18.356 2.894.629.07 1.578.395 1.777-.465.246-1.05-.851-1.07-1.5-1.199a76 76 0 0 0-5.222-.805c-9.477-1.168-18.914-2.62-28.313-4.293-10.508-1.867-20.605-5.632-31.226-7.066-2.829-.379-5.618-1.04-8.883-1.164.84.777 1.539.8 2.16.933m-7.293 17.895c4.473 3.793 9.258 7.18 13.95 10.68 12.44 9.285 25.359 17.925 37.343 27.824 2.676 2.21 5.398 4.36 8.113 6.52.43.343.992.824 1.504.288.586-.601-.105-1.027-.465-1.398-2.176-2.258-4.523-4.316-7.11-6.105-6.917-4.786-14.01-9.352-20.683-14.465a2606 2606 0 0 0-30.515-22.992c-1.059-.782-2.102-1.668-3.594-2.153.289.95.926 1.348 1.457 1.801m-65.246-91.441c-.727-5.868-1.133-11.801-2.54-17.547-2.866-11.727-4.554-23.645-6.347-35.555-.637-4.207-1.023-8.473-2.156-12.598-.156-.574-.258-1.5-.996-1.379-.89.149-.598 1.118-.524 1.72.32 2.652.555 5.331 1.133 7.929 3.02 13.539 5.32 27.207 7.414 40.918.906 5.941 2.028 11.851 4.02 17.648 0-.379.039-.761-.004-1.136m121.183 57.972c-2.328 0-4.656.02-6.984-.004a19.6 19.6 0 0 0-5.555.715c-.625.172-1.57.305-1.496 1.106.055.605.95.703 1.559.828 7.508 1.531 15.113 1.418 22.719 1.3.336-.003.675-.074 1.007-.144.606-.129 1.047-.457 1.149-1.098.101-.632-.18-1.101-.695-1.445-1.016-.676-2.137-1.05-3.364-1.055-2.781-.004-5.562 0-8.34 0zM183.492 200.7c3.98 6.559 7.774 13.246 12.012 19.633 8.668 13.074 17.871 25.797 25.207 39.715.277.52.523 1.351 1.32.969.739-.356.367-1.075.149-1.657a8 8 0 0 0-.426-.925c-2.68-5.024-5.559-9.918-9.063-14.422-4.129-5.301-7.8-10.903-11.296-16.64-5.028-8.25-10.153-16.442-15.262-24.642-.801-1.28-1.653-2.554-3.176-3.246.176.407.305.84.535 1.215M117.828 97.852c-5.027-8.122-10.14-16.196-15.055-24.383-4.277-7.121-9.144-13.864-13.199-21.121-3.023-5.41-6.254-10.703-9.41-16.04-.332-.558-.73-1.417-1.527-.988-.84.453-.223 1.211.047 1.79.918 1.964 2.05 3.8 3.273 5.59 4.688 6.847 9.48 13.632 13.68 20.804 6.836 11.68 13.707 23.336 21.011 34.734.301.473.633.957 1.051 1.32.356.313.754.227.856-.468-.215-.363-.461-.805-.727-1.238m102.848-16.004c2.36-1.778 4.719-3.551 7.012-5.41 4.156-3.368 7.773-7.313 11.59-11.04.59-.574 1.1-1.261.542-2.097-.601-.903-1.488-.656-2.3-.348-.81.305-1.407.945-2.083 1.457-4.046 3.078-7.246 7.04-10.902 10.52-2.379 2.265-4.09 5.12-6.273 7.91 1.25.101 1.808-.535 2.414-.992m-7.39 55.226c7.276-1.558 14.6-2.887 21.773-4.914 12.742-3.601 25.695-6.344 38.546-9.515 1.875-.461 3.73-.997 5.586-1.543.489-.145 1.008-.446.872-1.082-.149-.692-.758-.59-1.254-.516-1.403.21-2.793.457-4.16.894-5.41 1.73-10.778 3.676-16.282 5.032-14.722 3.629-29.512 6.996-44.27 10.48-.859.2-1.808.211-2.617 1.043.708.363 1.27.238 1.805.121m-59.532-77.531c1.598-7.27 1.324-14.656 1.351-22.023 0-.446-.09-.907-.214-1.336-.266-.891-.942-1.235-1.825-1.211-.902.023-1.304.59-1.437 1.398-.082.504-.164 1.012-.168 1.52-.098 7.609.273 15.195.941 22.77.032.35.145.663.52.968.672-.617.676-1.383.832-2.086M48.852 148.809c-5.11-.938-10.297-.957-15.461-1.246-2.036-.114-4.09.062-6.137.148-.738.031-1.34.387-1.43 1.2-.094.804.422 1.265 1.086 1.554.797.344 1.652.367 2.504.45 6.074.6 12.164-.028 18.242.17 1.942.067 3.91-.148 6.219-1.148-2-.457-3.5-.851-5.023-1.128M81.828 76.19a202 202 0 0 0-15.402-16.394c-.492-.469-1.004-.938-1.692-1.117-.656-.172-1.37-.426-1.902.218-.465.57-.2 1.215.063 1.778.617 1.32 1.722 2.258 2.773 3.203 5.367 4.836 10.762 9.64 16.152 14.45.5.444.996.921 2.078 1.112-.796-1.265-1.316-2.355-2.07-3.25m69.496 167.942c-.66 6.87-.332 13.754-.168 20.633.02.738.086 1.476.137 2.21.074 1.024.031 2.32 1.363 2.38 1.352.062 1.39-1.274 1.543-2.262.14-.895.242-1.813.215-2.715-.223-6.77-.723-13.52-1.305-20.266-.082-.918-.05-1.933-.851-2.672-.707 1.043-.79 1.164-.934 2.692m-45.547-49.387c-3.746 4.156-8.074 7.66-12.343 11.23-1.754 1.465-3.223 3.215-4.508 5.102-.426.625-.656 1.414-.043 2.055.644.672 1.379.285 2.023-.086 1.149-.66 2.016-1.656 2.969-2.55 2.746-2.575 4.813-5.77 7.531-8.36 2.485-2.364 4.582-5.051 6.75-7.68.406-.492.957-.996.746-1.89-1.406.253-2.297 1.261-3.125 2.18M75.086 226.31c-4.441 3.34-8.555 7.054-12.379 11.086-.664.699-1.277 1.445-1.875 2.199-.5.629-.68 1.36-.129 2.027.567.688 1.305.582 2.008.195.394-.218.805-.445 1.125-.757 4.004-3.926 8.434-7.438 11.77-12.012.535-.73 1.066-1.477 1.492-2.27.316-.586.222-1.125-.86-1.125-.277.16-.754.36-1.152.657m144.562-9.477c.172.414.387.82.637 1.195 3.758 5.657 8.824 10.036 13.969 14.34.129.11.277.196.43.274.605.312 1.199.379 1.71-.168.446-.477.426-1.024.16-1.578-.374-.782-.933-1.434-1.57-2-4.535-4.036-8.89-8.278-13.625-12.094-.347-.281-.742-.5-.992-.66-.726-.075-.922.191-.719.691m-24.007-109.094c2.523-2.02 5.082-4.004 7.511-6.129 1.836-1.605 3.508-3.394 5.227-5.125.601-.601 1.14-1.277 1.437-2.09.422-1.144-.05-1.746-1.25-1.718-1.664.035-2.859.89-3.941 2.062-3.012 3.262-5.637 6.828-8.344 10.328-.926 1.2-2.16 2.157-3.011 3.809 1.167-.125 1.77-.656 2.37-1.137M82.285 151.262c3.063 0 6.125.015 9.188-.016.511-.004 1.363.129 1.375-.57.007-.645-.86-.637-1.375-.715-1.18-.168-2.383-.152-3.559-.328-4.484-.68-8.95-1.61-13.496-1.703-1.504-.032-3.527-.723-4.234 1.445-.38 1.16 1.207 1.934 4.097 1.988 2.664.051 5.336.012 8.004.012zm157.25-59.219c-4.832 3.406-9.601 6.898-14.504 10.2-6.746 4.538-13.386 9.222-19.886 14.105-1.93 1.449-2.055 1.586-2.684 3.03 13.652-8.589 26.309-17.972 38.324-28.175-.418.281-.84.55-1.25.84m-43.918 101.91c2.754 4.027 6.227 7.387 9.856 10.594.894.789 1.922 2.129 3.175.906 1.196-1.168-.125-2.2-.843-3.055-3.508-4.187-8.18-7.02-12.332-10.457-.196-.164-.504-.191-.938-.343.113 1.093.637 1.699 1.082 2.355m-87.43-88.77c-.3-.609-.59-1.242-1.019-1.757-3.23-3.867-6.172-7.977-9.773-11.531-.817-.813-1.747-1.84-2.891-.84-1.234 1.078-.192 2.144.473 3.12q.092.143.214.263c3.832 3.62 7.664 7.242 11.508 10.847.32.297.75.48 1.04.66.679-.086.593-.468.448-.761M215.457 151c4.746.625 9.516.742 14.293.656.496-.008 1.004-.168 1.477-.34.582-.214.902-.699.918-1.316.015-.629-.329-1.082-.875-1.36-.672-.34-1.403-.425-2.145-.48-2.512-.195-5 .102-7.48.426-2.856.375-5.704.824-8.555 1.242.71.899 1.535 1.063 2.367 1.172m-64.09-65.812c.192 1.628.453 3.253.715 4.874.063.391.273.825.703.876.496.058.57-.442.695-.797a5.4 5.4 0 0 0 .258-.989c.64-4.21 1.133-8.425.625-12.695-.12-1.02-.332-2.008-1.59-2.027-1.207-.016-1.609.91-1.765 1.93-.25 1.64.027 3.285.062 4.925.098 1.3.145 2.606.297 3.903m1.438 124.453c-.047 1.761-.02 3.53-.352 5.27-.558 2.905-.926 5.835-.914 8.796.008 1.645.102 3.293.23 4.934.051.632.348 1.265 1.118 1.308.68.035.965-.508 1.195-1.047a5.4 5.4 0 0 0 .395-2.34c-.25-5.847-.504-11.699-.766-17.546-.02-.438.055-.93-.465-1.274-.48.559-.426 1.246-.441 1.899M249.5 85.633c5.008-3.242 9.648-7 14.54-10.414.468-.328 1.038-.696.628-1.36-.402-.66-1.04-.312-1.52-.066-1.109.562-2.226 1.14-3.261 1.828-5.899 3.91-10.746 9.07-16.012 13.746 1.875-1.246 3.734-2.512 5.625-3.734m-35.488 123.293c-.989.031-1.617.527-1.653 1.558-.03.883 1.45 2.375 2.36 2.38 1.054.003 1.504-.634 1.55-1.462 0-1.37-1.093-2.511-2.257-2.476m-59.88-140.64c-.003-.981-.55-1.65-1.546-1.669-1.086-.02-1.664.68-1.668 1.73-.008.985.55 1.563 1.629 1.7.973-.121 1.594-.688 1.586-1.762M81.267 220.198c-.032.942.53 1.512 1.437 1.574.977.07 1.672-.437 1.758-1.445.09-1.031-.555-1.539-1.531-1.691-.957.09-1.633.527-1.664 1.562m7.601-136.39c-.832.015-1.39.515-1.402 1.37-.016 1.079.633 1.684 1.676 1.708.902.02 1.445-.512 1.52-1.547-.15-.953-.74-1.55-1.794-1.531m65.051 151.203c.008-.867-.55-1.414-1.383-1.38-1.11.048-1.765.77-1.781 1.868-.012.906.656 1.227 1.492 1.23 1.086-.058 1.664-.664 1.672-1.718m85.23-86.512c-.847-.066-1.437.348-1.515 1.21-.09 1.005.566 1.423 1.453 1.442.773.016 1.453-.226 1.594-1.246-.13-.808-.633-1.34-1.532-1.406m-177.203-.29c-.828.052-1.449.481-1.375 1.4.07.874.688 1.296 1.532 1.25.851-.048 1.328-.563 1.406-1.403-.145-.91-.735-1.3-1.563-1.246m152.625-60.5c0-.757-.472-1.16-1.195-1.144-.879.016-1.355.559-1.355 1.422 0 .73.39 1.16 1.363 1.14.625-.12 1.191-.526 1.187-1.417m0 0" style="stroke:none;fill-rule:nonzero;fill:#f2eee2;fill-opacity:1"/><path d="M97.523 129.059c-1.546-.465-3.125-.86-4.64-1.414-6.258-2.29-12.258-5.149-18.164-8.215-3.285-1.703-6.63-3.25-10.078-4.59a247 247 0 0 1-30.246-14.145c-3.04-1.68-6.211-3.09-9.461-4.308-7.946-2.985-15.692-6.38-22.887-10.934-.336-.21-.692-.398-1.004-.64-.418-.329-.781-.743-.516-1.31.274-.585.805-.519 1.332-.386 1.168.29 2.254.774 3.309 1.34a630 630 0 0 0 40.676 20.027c9.281 4.164 18.36 8.79 27.636 12.954 7.153 3.21 14.41 6.19 21.493 9.566.945.45 1.851.973 2.777 1.465zm77.157 77.785c3.691 10.453 7.168 20.992 11.156 31.332 3.644 9.433 8.16 18.52 11.77 27.98 3.445 9.04 7.296 17.895 11.785 26.469.386.738.71 2.094 1.82 1.582 1.098-.508.309-1.644-.024-2.406-1.5-3.438-3.023-6.871-4.64-10.258-2.746-5.742-5.774-11.348-8.477-17.117-3.535-7.54-5.941-15.488-8.843-23.262-3.973-10.656-7.997-21.289-11.989-31.937-.62-1.649-1.172-3.325-1.789-4.977-.133-.363-.375-.766-.867-.66-.492.101-.523.523-.496 1.086.172.633.332 1.418.594 2.168m1.16-113.852c1.289-2.472 2.625-4.918 3.82-7.433 2.004-4.22 4.285-8.282 6.766-12.235 4.652-7.422 9.226-14.894 13.105-22.761 7.45-15.106 15.34-29.965 24.492-44.125.922-1.43 1.704-2.958 2.446-4.489.226-.46.84-1.215-.008-1.613-.715-.332-1.106.36-1.426.906-2.844 4.79-6.101 9.332-8.605 14.328-4.684 9.356-9.727 18.512-14.91 27.61-8.95 15.707-17.176 31.828-26.438 47.367-.437.73-.84 1.492-1.14 2.285-.223.586-.067 1.133.667 1.262.692-.082.97-.602 1.23-1.102m34.45 80.485c10.374 6.277 20.98 12.113 32.065 17.062 11.27 5.027 22.633 9.832 33.805 15.086 6.996 3.293 13.93 6.734 21.184 9.445.683.254 1.664 1.055 2.094.18.328-.676-.848-1.059-1.47-1.324-4.09-1.742-7.886-4.063-11.91-5.934-8.203-3.82-16.824-6.683-24.992-10.523-17.289-8.13-34.66-16.117-51.347-25.461-.762-.426-1.504-.992-2.793-.696 1.082 1.188 2.32 1.536 3.363 2.165M87.925 299.723c.554.254.828-.188 1.054-.586.31-.543.594-1.102.872-1.66 3.05-6.118 5.503-12.485 8.043-18.82 5.445-13.579 12.062-26.618 18.402-39.782 5.281-10.969 9.406-22.45 14.894-33.324.18-.352.29-.742.395-1.125.105-.387.191-.863-.238-1.063-.567-.261-.82.219-1 .64-.563 1.31-1.067 2.638-1.641 3.938-5.176 11.707-10.945 23.13-16.426 34.692-2.996 6.32-5.164 12.992-8.113 19.344-5.223 11.242-10.32 22.543-15.461 33.824-.426.93-.77 1.894-1.066 2.629-.07.636-.168 1.086.285 1.293M3.41 209.832a622 622 0 0 0 6-2.45c17.016-7.034 34.067-13.995 51.574-19.71 10.606-3.461 20.938-7.598 31.383-11.461 1.598-.59 3.223-1.11 4.828-1.676.442-.156.942-.445.711-.965-.172-.39-.703-.246-1.09-.12-.27.085-.53.195-.8.288-10.293 3.617-20.555 7.328-30.98 10.559-4.36 1.351-8.298 3.703-12.583 5.246a7155 7155 0 0 0-41.34 15.004c-3.254 1.195-6.39 2.687-9.46 4.308-.403.211-.88.41-.805.973.07.531.53.492 1.105.484.383-.125.934-.269 1.457-.48m205.3-83.324c4.454-1.719 8.958-3.328 13.34-5.215 14.052-6.043 28.044-12.223 42.087-18.281 9.504-4.098 18.98-8.246 28.37-12.594.673-.313 1.802-.578 1.391-1.578-.394-.969-1.375-.418-2.105-.2-2.734.833-5.29 2.067-7.84 3.34-5.289 2.637-10.348 5.727-15.8 8.051-19.93 8.485-40.094 16.426-59.747 25.555-.523.242-1.261.254-1.328 1.176.602.168 1.133-.063 1.633-.254m-107.003 57.394c-.977.465-1.973.903-2.871 1.489-4.676 3.039-9.504 5.824-14.379 8.527-4.227 2.344-8.504 4.605-12.504 7.344-7.46 5.11-14.988 10.117-22.922 14.484-5.976 3.293-12.066 6.39-17.703 10.266-1.125.773-2.2 1.617-3.285 2.441-.363.274-.824.602-.512 1.106.274.449.836.351 1.246.191.684-.273 1.36-.594 1.977-.984 12.3-7.79 24.605-15.551 37.266-22.762 9.578-5.457 18.52-11.992 28.261-17.211 1.801-.965 3.52-2.086 5.262-3.16.48-.297.95-.649 1.11-1.301-.044-.668-.497-.644-.946-.43m-.285-66.707c-.606-.93-1.504-1.59-2.414-2.203-10.309-6.992-20.172-14.605-30.461-21.64-11.637-7.957-22.82-16.582-34.2-24.918-.824-.606-1.593-1.301-2.59-1.621-.534-.172-1.179-.446-1.53.199-.317.586.273.914.656 1.222 2.004 1.594 3.941 3.282 6.043 4.73 4.215 2.911 8.582 5.59 12.765 8.536 8.141 5.727 16.239 11.52 24.282 17.387 7.03 5.133 14.437 9.722 21.382 14.976 1.825 1.38 3.868 2.473 5.81 3.7zm18.172 84.953c-2.797 4.29-5.86 8.387-8.938 12.473-3.695 4.902-7.344 9.836-10.855 14.875-4.285 6.152-8.383 12.445-13.02 18.356-3.96 5.054-8.34 9.777-12.117 14.984-1.078 1.484-2.031 3.012-2.613 4.754-.145.426-.465.941.035 1.23.555.328.969-.144 1.242-.582.723-1.152 1.344-2.379 2.117-3.496 5.864-8.46 12.395-16.422 18.578-24.64 8.793-11.68 17.172-23.637 25.399-35.707.777-1.145 1.644-2.29 1.91-3.977-.973.469-1.344 1.125-1.738 1.73M88.766 7.191c2.113 5.34 4.402 10.606 7.09 15.688 3.164 5.988 6.09 12.098 8.523 18.402 3.172 8.23 6.969 16.184 10.316 24.332 3.692 8.989 8.121 17.66 11.45 26.805.253.7.304 2.11 1.433 1.637.887-.375.074-1.414-.207-2.102-1.672-4.105-3.805-8-5.387-12.156-4.21-11.05-8.605-22.04-13.804-32.66-5.528-11.293-10.5-22.817-15.282-34.43-.867-2.102-1.863-4.148-2.835-6.203-.208-.441-.438-.95-1.145-1.047-.727.48-.387 1.14-.152 1.734m50.336 201.16c-.532 1.622-1.012 3.254-1.563 4.868-2.281 6.668-4.45 13.363-5.988 20.258a354 354 0 0 1-4.25 17.03c-2.524 9.15-6.063 17.981-8.547 27.145-.461 1.707-.969 3.387-.969 5.172 0 .442-.11 1.016.48 1.125.66.125.915-.449.973-.949.313-2.621 1.356-5.043 2.02-7.57 1.629-6.207 3.347-12.39 4.992-18.594 1.762-6.652 4.488-12.996 6.18-19.668 2.175-8.594 4.297-17.203 6.761-25.719.5-1.722.782-3.504 1.266-5.726-.91 1.015-1.098 1.843-1.355 2.629m-47.915-72.578c-10.921-3.757-22.105-6.582-33.359-9.109-8.308-1.867-16.61-3.738-24.812-6.027-5.856-1.633-11.707-3.282-17.7-4.364-.445-.082-.894-.171-1.347-.187-.399-.016-.832.055-.918.555-.07.394.195.656.527.777.75.266 1.5.559 2.274.719 5.457 1.105 10.937 2.097 16.375 3.281 16.597 3.625 32.726 9.062 49.265 12.926 3.297.77 6.547 1.816 10.36 1.937-.489-.375-.567-.472-.665-.508m73.176 74.856c.723 6.664 1.414 13.336 2.532 19.95 2.3 13.612 4.417 27.253 6.425 40.913.453 3.078.48 6.254 1.98 9.106.223.422.266 1.183.923 1.027.754-.176.543-.957.402-1.441-.547-1.864-.8-3.778-1.16-5.672-.961-5.024-2.14-10.012-2.875-15.063-1.262-8.656-2.121-17.37-3.395-26.023-1.043-7.078-2.449-14.106-3.699-21.153-.351-1.972-.726-3.941-1.09-5.91-.789 1.485-.195 2.864-.043 4.266m22.39-115.379c2.74-3.559 5.587-7.035 8.185-10.707 4.277-6.031 8.652-11.988 13.343-17.707 6.059-7.39 12.406-14.527 18.809-21.617 1.265-1.403 2.363-2.918 3.144-4.64.176-.388.5-.876-.054-1.204-.422-.25-.75.098-1.04.367-.245.235-.456.504-.68.766-5.21 6.086-10.222 12.34-15.257 18.57a1129 1129 0 0 0-28.129 36.25c-.387.524-.976.977-.828 2.04 1.223-.403 1.867-1.29 2.508-2.118m-19.1-10.465c3.085-11.812 6.535-23.531 9.238-35.45 2.386-10.522 5.496-20.878 7.433-31.507.125-.683.59-1.605-.41-1.894-.879-.25-1.039.718-1.277 1.308-1.227 3.024-1.836 6.215-2.301 9.418-.899 6.184-1.383 12.461-3.121 18.473-3.524 12.168-6.785 24.406-10.117 36.625-.715 2.637-1.13 5.32-1.125 8.094.953-1.563 1.23-3.34 1.68-5.067m-80.688 78.79c-5.692.726-11.426 1.218-17.067 2.245-11.687 2.133-23.418 3.957-35.183 5.598-5.406.754-10.832 1.355-16.164 2.566-.84.192-2.192.395-1.957 1.446.23 1.02 1.465.398 2.23.265 8.957-1.578 17.89-3.297 26.864-4.765 7.515-1.23 15.093-2.067 22.609-3.282 5.887-.949 11.719-2.226 17.582-3.328 2.21-.414 4.441-.73 6.664-1.09-1.93-.468-3.734.106-5.578.344m123.539-.095a50896 50896 0 0 0 52.851 11.165c6.07 1.28 12.196 2.21 18.356 2.894.629.07 1.578.395 1.777-.465.246-1.05-.851-1.07-1.5-1.199a76 76 0 0 0-5.222-.805c-9.477-1.168-18.914-2.62-28.313-4.293-10.508-1.867-20.605-5.632-31.226-7.066-2.829-.379-5.618-1.04-8.883-1.164.84.777 1.539.8 2.16.933m-7.293 17.895c4.473 3.793 9.258 7.18 13.95 10.68 12.44 9.285 25.359 17.925 37.343 27.824 2.676 2.21 5.398 4.36 8.113 6.52.43.343.992.824 1.504.288.586-.601-.105-1.027-.465-1.398-2.176-2.258-4.523-4.316-7.11-6.105-6.917-4.786-14.01-9.352-20.683-14.465a2606 2606 0 0 0-30.515-22.992c-1.059-.782-2.102-1.668-3.594-2.153.289.95.926 1.348 1.457 1.801m-65.246-91.441c-.727-5.868-1.133-11.801-2.54-17.547-2.866-11.727-4.554-23.645-6.347-35.555-.637-4.207-1.023-8.473-2.156-12.598-.156-.574-.258-1.5-.996-1.379-.89.149-.598 1.118-.524 1.72.32 2.652.555 5.331 1.133 7.929 3.02 13.539 5.32 27.207 7.414 40.918.906 5.941 2.028 11.851 4.02 17.648 0-.379.039-.761-.004-1.136m121.183 57.972c-2.328 0-4.656.02-6.984-.004a19.6 19.6 0 0 0-5.555.715c-.625.172-1.57.305-1.496 1.106.055.605.95.703 1.559.828 7.508 1.531 15.113 1.418 22.719 1.3.336-.003.675-.074 1.007-.144.606-.129 1.047-.457 1.149-1.098.101-.632-.18-1.101-.695-1.445-1.016-.676-2.137-1.05-3.364-1.055-2.781-.004-5.562 0-8.34 0zM183.492 200.7c3.98 6.559 7.774 13.246 12.012 19.633 8.668 13.074 17.871 25.797 25.207 39.715.277.52.523 1.351 1.32.969.739-.356.367-1.075.149-1.657a8 8 0 0 0-.426-.925c-2.68-5.024-5.559-9.918-9.063-14.422-4.129-5.301-7.8-10.903-11.296-16.64-5.028-8.25-10.153-16.442-15.262-24.642-.801-1.28-1.653-2.554-3.176-3.246.176.407.305.84.535 1.215M117.828 97.852c-5.027-8.122-10.14-16.196-15.055-24.383-4.277-7.121-9.144-13.864-13.199-21.121-3.023-5.41-6.254-10.703-9.41-16.04-.332-.558-.73-1.417-1.527-.988-.84.453-.223 1.211.047 1.79.918 1.964 2.05 3.8 3.273 5.59 4.688 6.847 9.48 13.632 13.68 20.804 6.836 11.68 13.707 23.336 21.011 34.734.301.473.633.957 1.051 1.32.356.313.754.227.856-.468-.215-.363-.461-.805-.727-1.238m102.848-16.004c2.36-1.778 4.719-3.551 7.012-5.41 4.156-3.368 7.773-7.313 11.59-11.04.59-.574 1.1-1.261.542-2.097-.601-.903-1.488-.656-2.3-.348-.81.305-1.407.945-2.083 1.457-4.046 3.078-7.246 7.04-10.902 10.52-2.379 2.265-4.09 5.12-6.273 7.91 1.25.101 1.808-.535 2.414-.992m-7.39 55.226c7.276-1.558 14.6-2.887 21.773-4.914 12.742-3.601 25.695-6.344 38.546-9.515 1.875-.461 3.73-.997 5.586-1.543.489-.145 1.008-.446.872-1.082-.149-.692-.758-.59-1.254-.516-1.403.21-2.793.457-4.16.894-5.41 1.73-10.778 3.676-16.282 5.032-14.722 3.629-29.512 6.996-44.27 10.48-.859.2-1.808.211-2.617 1.043.708.363 1.27.238 1.805.121m-59.532-77.531c1.598-7.27 1.324-14.656 1.351-22.023 0-.446-.09-.907-.214-1.336-.266-.891-.942-1.235-1.825-1.211-.902.023-1.304.59-1.437 1.398-.082.504-.164 1.012-.168 1.52-.098 7.609.273 15.195.941 22.77.032.35.145.663.52.968.672-.617.676-1.383.832-2.086M48.852 148.809c-5.11-.938-10.297-.957-15.461-1.246-2.036-.114-4.09.062-6.137.148-.738.031-1.34.387-1.43 1.2-.094.804.422 1.265 1.086 1.554.797.344 1.652.367 2.504.45 6.074.6 12.164-.028 18.242.17 1.942.067 3.91-.148 6.219-1.148-2-.457-3.5-.851-5.023-1.128M81.828 76.19a202 202 0 0 0-15.402-16.394c-.492-.469-1.004-.938-1.692-1.117-.656-.172-1.37-.426-1.902.218-.465.57-.2 1.215.063 1.778.617 1.32 1.722 2.258 2.773 3.203 5.367 4.836 10.762 9.64 16.152 14.45.5.444.996.921 2.078 1.112-.796-1.265-1.316-2.355-2.07-3.25m69.496 167.942c-.66 6.87-.332 13.754-.168 20.633.02.738.086 1.476.137 2.21.074 1.024.031 2.32 1.363 2.38 1.352.062 1.39-1.274 1.543-2.262.14-.895.242-1.813.215-2.715-.223-6.77-.723-13.52-1.305-20.266-.082-.918-.05-1.933-.851-2.672-.707 1.043-.79 1.164-.934 2.692m-45.547-49.387c-3.746 4.156-8.074 7.66-12.343 11.23-1.754 1.465-3.223 3.215-4.508 5.102-.426.625-.656 1.414-.043 2.055.644.672 1.379.285 2.023-.086 1.149-.66 2.016-1.656 2.969-2.55 2.746-2.575 4.813-5.77 7.531-8.36 2.485-2.364 4.582-5.051 6.75-7.68.406-.492.957-.996.746-1.89-1.406.253-2.297 1.261-3.125 2.18M75.086 226.31c-4.441 3.34-8.555 7.054-12.379 11.086-.664.699-1.277 1.445-1.875 2.199-.5.629-.68 1.36-.129 2.027.567.688 1.305.582 2.008.195.394-.218.805-.445 1.125-.757 4.004-3.926 8.434-7.438 11.77-12.012.535-.73 1.066-1.477 1.492-2.27.316-.586.222-1.125-.86-1.125-.277.16-.754.36-1.152.657m144.562-9.477c.172.414.387.82.637 1.195 3.758 5.657 8.824 10.036 13.969 14.34.129.11.277.196.43.274.605.312 1.199.379 1.71-.168.446-.477.426-1.024.16-1.578-.374-.782-.933-1.434-1.57-2-4.535-4.036-8.89-8.278-13.625-12.094-.347-.281-.742-.5-.992-.66-.726-.075-.922.191-.719.691m-24.007-109.094c2.523-2.02 5.082-4.004 7.511-6.129 1.836-1.605 3.508-3.394 5.227-5.125.601-.601 1.14-1.277 1.437-2.09.422-1.144-.05-1.746-1.25-1.718-1.664.035-2.859.89-3.941 2.062-3.012 3.262-5.637 6.828-8.344 10.328-.926 1.2-2.16 2.157-3.011 3.809 1.167-.125 1.77-.656 2.37-1.137M82.285 151.262c3.063 0 6.125.015 9.188-.016.511-.004 1.363.129 1.375-.57.007-.645-.86-.637-1.375-.715-1.18-.168-2.383-.152-3.559-.328-4.484-.68-8.95-1.61-13.496-1.703-1.504-.032-3.527-.723-4.234 1.445-.38 1.16 1.207 1.934 4.097 1.988 2.664.051 5.336.012 8.004.012zm157.25-59.219c-4.832 3.406-9.601 6.898-14.504 10.2-6.746 4.538-13.386 9.222-19.886 14.105-1.93 1.449-2.055 1.586-2.684 3.03 13.652-8.589 26.309-17.972 38.324-28.175-.418.281-.84.55-1.25.84m-43.918 101.91c2.754 4.027 6.227 7.387 9.856 10.594.894.789 1.922 2.129 3.175.906 1.196-1.168-.125-2.2-.843-3.055-3.508-4.187-8.18-7.02-12.332-10.457-.196-.164-.504-.191-.938-.343.113 1.093.637 1.699 1.082 2.355m-87.43-88.77c-.3-.609-.59-1.242-1.019-1.757-3.23-3.867-6.172-7.977-9.773-11.531-.817-.813-1.747-1.84-2.891-.84-1.234 1.078-.192 2.144.473 3.12q.092.143.214.263c3.832 3.62 7.664 7.242 11.508 10.847.32.297.75.48 1.04.66.679-.086.593-.468.448-.761M215.457 151c4.746.625 9.516.742 14.293.656.496-.008 1.004-.168 1.477-.34.582-.214.902-.699.918-1.316.015-.629-.329-1.082-.875-1.36-.672-.34-1.403-.425-2.145-.48-2.512-.195-5 .102-7.48.426-2.856.375-5.704.824-8.555 1.242.71.899 1.535 1.063 2.367 1.172m-64.09-65.812c.192 1.628.453 3.253.715 4.874.063.391.273.825.703.876.496.058.57-.442.695-.797a5.4 5.4 0 0 0 .258-.989c.64-4.21 1.133-8.425.625-12.695-.12-1.02-.332-2.008-1.59-2.027-1.207-.016-1.609.91-1.765 1.93-.25 1.64.027 3.285.062 4.925.098 1.3.145 2.606.297 3.903m1.438 124.453c-.047 1.761-.02 3.53-.352 5.27-.558 2.905-.926 5.835-.914 8.796.008 1.645.102 3.293.23 4.934.051.632.348 1.265 1.118 1.308.68.035.965-.508 1.195-1.047a5.4 5.4 0 0 0 .395-2.34c-.25-5.847-.504-11.699-.766-17.546-.02-.438.055-.93-.465-1.274-.48.559-.426 1.246-.441 1.899M249.5 85.633c5.008-3.242 9.648-7 14.54-10.414.468-.328 1.038-.696.628-1.36-.402-.66-1.04-.312-1.52-.066-1.109.562-2.226 1.14-3.261 1.828-5.899 3.91-10.746 9.07-16.012 13.746 1.875-1.246 3.734-2.512 5.625-3.734m-35.488 123.293c-.989.031-1.617.527-1.653 1.558-.03.883 1.45 2.375 2.36 2.38 1.054.003 1.504-.634 1.55-1.462 0-1.37-1.093-2.511-2.257-2.476m-59.88-140.64c-.003-.981-.55-1.65-1.546-1.669-1.086-.02-1.664.68-1.668 1.73-.008.985.55 1.563 1.629 1.7.973-.121 1.594-.688 1.586-1.762M81.267 220.198c-.032.942.53 1.512 1.437 1.574.977.07 1.672-.437 1.758-1.445.09-1.031-.555-1.539-1.531-1.691-.957.09-1.633.527-1.664 1.562m7.601-136.39c-.832.015-1.39.515-1.402 1.37-.016 1.079.633 1.684 1.676 1.708.902.02 1.445-.512 1.52-1.547-.15-.953-.74-1.55-1.794-1.531m65.051 151.203c.008-.867-.55-1.414-1.383-1.38-1.11.048-1.765.77-1.781 1.868-.012.906.656 1.227 1.492 1.23 1.086-.058 1.664-.664 1.672-1.718m85.23-86.512c-.847-.066-1.437.348-1.515 1.21-.09 1.005.566 1.423 1.453 1.442.773.016 1.453-.226 1.594-1.246-.13-.808-.633-1.34-1.532-1.406m-177.203-.29c-.828.052-1.449.481-1.375 1.4.07.874.688 1.296 1.532 1.25.851-.048 1.328-.563 1.406-1.403-.145-.91-.735-1.3-1.563-1.246m152.625-60.5c0-.757-.472-1.16-1.195-1.144-.879.016-1.355.559-1.355 1.422 0 .73.39 1.16 1.363 1.14.625-.12 1.191-.526 1.187-1.417m0 0" style="stroke:none;fill-rule:nonzero;fill:#f2eee2;fill-opacity:1"/></g></g><mask id="a"><g filter="url(#d)"><path d="M0 0h300v300H0z" style="fill:#000;fill-opacity:.43;stroke:none"/></g></mask></g></svg>