<svg xmlns="http://www.w3.org/2000/svg" width="1080" height="1920" viewBox="0 0 810 1440"><defs><clipPath id="b"><path d="M0 0h810v1440H0z"/></clipPath><filter id="c" width="100%" height="100%" x="0%" y="0%" filterUnits="objectBoundingBox"><feColorMatrix in="SourceGraphic" values="0 0 0 0 1 0 0 0 0 1 0 0 0 0 1 0 0 0 1 0"/></filter></defs><g mask="url(#a)"><g clip-path="url(#b)"><path d="M92.902-4.754c6.743 6.836 14.348 12.902 19.93 20.606C125.539 33.273 125.637 53.59 124.289 74c-1.348 20.695-4.43 41.492 2.02 61.996 5.875 18.68 17.812 33.504 29.941 48.234 12.902 15.692 24.742 31.961 29.46 52.278 4.43 18.965 4.044 38.12 3.083 57.375-2.023 39.664-3.273 79.234 10.492 117.453 18.676 51.797 55.742 83.95 107.535 100.125 34.95 10.879 70.762 12.129 106.672 7.894 34.848-4.14 69.317-10.398 104.07-15.117 23.106-3.175 46.403-5.004 69.22 1.637 7.124 2.121 14.25 5.969 20.023 10.785 9.242 7.7 9.629 20.215.289 27.63-8.086 6.355-17.809 11.167-27.438 15.112-18.386 7.414-37.351 13.383-54.199 24.36-21.953 14.246-36.008 35.136-48.812 57.09-10.59 18.097-22.336 35.425-41.493 45.632-30.52 16.27-60.265 12.707-89.05-4.527-22.145-13.285-39.375-32.25-55.454-51.984-25.32-31-49.773-62.77-75.574-93.387-21.66-25.606-44.863-49.965-74.902-66.043-8.086-4.332-17.133-7.606-26.184-8.856-17.906-2.312-30.808 7.895-37.258 27.051-7.414 21.856-7.796 44.383-6.546 67.008 1.925 36.871 8.953 73.07 15.597 109.363 5.39 29.27 12.32 58.344 12.031 88.38-.093 6.257-1.347 12.804-3.367 18.773-2.984 8.855-11.457 13.476-20.027 9.722-10.395-4.62-20.504-10.492-29.555-17.328C26.09 750.504 8.57 734.621-10.3 720.66c-16.941-12.613-36.39-19.832-57.957-18.195-11.453.867-22.719 3.851-33.984 5.777-1.25.192-2.5.29-3.754.48v-120.34c1.058.29 2.215.481 3.18.962 18.484 9.629 36.773 19.449 55.355 28.98 14.055 7.219 28.11 14.535 42.649 20.602 8.375 3.465 13.671-.676 14.152-9.918.48-9.434.289-18.867-.29-28.305-1.636-29.363-4.429-58.82-5.007-88.183-.383-21.95 3.66-43.707 13.191-63.926 18.293-39.184 54.297-52.66 93.383-34.946 16.945 7.7 31.965 18.579 44.961 31.672 36.39 36.778 74.031 72.301 114.082 105.13 25.031 20.6 50.445 40.53 80.098 54.202 22.914 10.59 46.597 17.52 72.11 10.59 15.21-4.14 28.015-11.937 34.945-26.957 5.007-10.976.578-19.832-11.262-20.89-11.746-1.06-23.684-.965-35.528-.48-28.687 1.058-57.375 1.636-85.39-6.259-52.278-14.633-93.676-44.863-126.313-87.707-18.097-23.777-36.004-47.844-54.199-71.625-15.113-19.832-31.77-38.703-45.633-59.398-27.343-40.82-35.91-87.707-40.918-135.555-3.175-29.937-6.16-59.976-11.742-89.434-7.605-40.05-26.957-74.226-58.726-100.414C-22.718 8.82-33.02 2.277-42.84-4.754zm0 0" style="stroke:none;fill-rule:nonzero;fill:#4eb6ff;fill-opacity:1"/><path d="M-106.379 765.426c5.774-4.14 11.55-8.375 17.426-12.418 12.418-8.473 25.894-14.73 40.816-17.328 20.41-3.563 37.453 3.465 52.086 17.425 14.922 14.149 24.836 32.06 35.813 49.098 8.086 12.61 16.75 24.934 25.511 37.16 2.118 2.887 5.102 5.297 8.086 7.508 12.805 9.438 24.649 7.512 33.891-5.484 10.684-14.828 14.344-31.965 16.172-49.68 3.273-31.285 0-62.383-4.043-93.383-5.39-41.59-10.879-83.18-14.922-124.96-2.117-21.47-1.059-43.325 6.738-64.02 3.082-8.38 7.414-16.274 16.848-19.063 10.012-2.984 18.676 1.442 24.453 8.567 10.688 12.902 21.277 26.187 29.461 40.629 18.773 33.308 35.813 67.68 54.2 101.18 13.671 24.937 29.46 48.425 50.35 68.066 22.43 21.18 48.427 32.828 79.81 29.652 23.394-2.406 44.48-11.555 64.792-22.914 32.54-18.195 61.516-41.59 91.555-63.348 20.89-15.02 42.55-28.976 64.309-42.84 5.488-3.464 12.422-5.296 18.965-6.355 9.917-1.637 15.308 4.719 12.71 14.539-3.562 13.574-11.746 24.547-20.41 34.945-20.312 24.356-41.3 48.137-61.613 72.399-20.797 24.742-39.57 50.832-50.832 81.543-6.356 17.426-9.05 35.62-10.59 54.008-.965 10.492-1.926 21.082-3.95 31.382-2.694 13.383-12.034 21.47-24.933 23.59-13.382 2.117-27.148 3.559-40.629 2.79-55.742-3.274-109.941.577-161.64 24.648-46.211 21.468-95.598 24.547-145.754 22.62-38.895-1.538-77.887-3.944-116.586 2.411-27.438 4.523-53.914 12.418-80.004 21.852-2.695.964-5.39 2.023-8.086 3.082v-30.809c48.04-15.98 96.945-28.688 147.2-35.91 40.628-5.871 80.773-14.535 118.702-30.516 52.66-22.144 107.73-34.469 163.762-43.515 29.074-4.72 57.184-12.805 82.406-28.786 16.27-10.3 30.809-22.53 39.57-40.148 1.442-2.984 1.153-6.836 1.637-10.3-3.37-.29-6.933-1.348-10.109-.673-14.055 3.078-27.918 7.028-41.976 10.11-37.258 8.18-71.528 2.117-101.95-21.856-20.894-16.656-37.355-37.355-54.59-57.476-8.757-10.203-17.906-20.118-27.82-28.977-8.473-7.508-15.5-5.68-18.293 5.297-4.812 18.676-8.375 37.738-11.457 56.8-4.332 27.243-8.086 54.489-17.52 80.579-9.242 25.512-22.722 48.137-46.019 63.445-27.148 17.906-57.379 20.024-87.894 13.668-23.782-5.004-46.887-12.707-70.184-19.637-21.66-6.453-43.129-11.363-65.465-3.66zm0 0" style="stroke:none;fill-rule:nonzero;fill:#4eb6ff;fill-opacity:1"/><path d="M914.105 525.707c-24.066 5.395-40.816-5.969-54.101-24.355-13.77-19.063-19.16-41.301-23.973-63.73-4.043-18.583-7.414-37.454-13.285-55.454-10.785-32.832-35.527-52.469-67.777-61.133-28.496-7.703-57.86-12.035-86.934-17.715-21.082-4.043-42.168-7.992-61.133-18.965-24.07-13.96-33.597-35.816-25.129-62.386 4.528-14.246 11.844-27.535 17.813-41.399 1.348-3.078 2.02-6.449 2.984-9.722-3.273 1.156-6.933 1.543-9.629 3.464-19.543 14.153-39.375 28.016-58.148 43.133-29.555 23.778-57.281 49.965-90.11 69.41-12.804 7.606-26.187 14.06-41.59 14.922-17.812.965-30.421-9.816-31.866-27.82-1.54-19.543 5.007-36.875 14.441-53.434 15.402-27.05 37.355-48.23 61.422-67.39 13.863-11.07 27.918-22.043 42.168-32.73 22.238-16.657 28.496-38.606 21.851-64.696-4.906-19.352-10.683-38.508-16.074-57.766-.387-.77-.484-1.73-.676-2.695h242.606c-1.348.965-2.695 2.024-4.137 2.89-12.133 7.989-25.031 15.016-36.105 24.259-18.965 15.984-31.77 35.718-28.977 62.097 1.828 17.235 9.242 32.637 18.004 47.172 16.75 27.727 30.805 56.32 34.465 89.246 2.597 23.492 16.75 37.16 39.664 41.399 11.746 2.21 23.781 3.562 35.719 3.945 18.675.676 37.449.191 56.222.191 23.297-.093 44.766 4.91 62.383 21.375-.098 79.328-.098 158.657-.098 237.887m0 0" style="stroke:none;fill-rule:nonzero;fill:#bfe4ff;fill-opacity:1"/><path d="M458.738-4.754c-3.465 12.324.387 24.164 3.082 35.91 6.45 28.305-2.504 52.469-19.543 74.418-18.87 24.453-38.511 48.332-56.8 73.266-16.176 22.14-28.305 46.5-32.829 73.937-4.046 24.356-1.543 47.848 13.864 68.16 17.328 22.72 44.765 29.844 72.875 20.122 23.203-7.993 41.879-23.106 60.652-38.223 9.82-7.89 19.64-16.074 30.23-22.816 18.098-11.36 32.348-6.543 38.895 13.863 5.2 16.176 8.664 33.12 11.55 49.969 4.43 24.933 11.075 48.906 24.36 70.855 3.852 6.352 6.836 13.574 8.278 20.793 2.503 12.805-3.368 23.203-12.997 31.29-14.44 12.132-31.77 15.98-50.062 16.847-27.918 1.254-54.684-4.813-81.445-11.746-25.032-6.45-49.871-15.211-75.961-15.594-14.344-.195-28.785 3.078-43.032 5.969-13.285 2.695-26.09 7.988-39.375 10.492-33.695 6.164-59.882-7.125-79.906-33.598-19.832-26.187-26.281-56.512-23.972-88.476 1.636-22.141 4.91-44.286 9.34-66.043 7.699-37.93 1.058-72.106-20.7-104.262-12.707-18.774-24.262-38.414-34.176-58.82-14.058-29.075-11.746-58.344 5.293-85.782 8.57-13.863 18.387-26.957 27.63-40.433h103.976c-.867 1.25-1.445 2.695-2.504 3.754-15.402 14.632-24.742 32.734-30.422 53.047-8.086 28.976-9.05 58.535-6.258 88.183 3.371 36.395 7.414 72.688 11.84 108.887 4.047 32.73 8.281 65.465 14.059 97.91 6.547 37.254 29.746 59.688 66.906 65.945a591 591 0 0 0 58.148 6.93c25.707 1.734 51.606 3.18 77.02-3.078 13.476-3.274 25.992-8.86 32.926-22.047 4.812-9.05 1.445-17.234-8.664-18.102-13.286-1.058-26.766-.48-40.051.579-19.156 1.636-38.317 3.851-57.473.675-34.66-5.777-59.113-25.511-75.191-56.129-15.98-30.421-19.735-63.347-18.196-97.043 1.446-32.73 9.34-64.21 17.813-95.69 7.027-26.38 10.973-53.145 12.418-80.485.965-17.813 4.234-35.528 6.45-53.336 33.89-.098 67.968-.098 101.952-.098m0 0" style="stroke:none;fill-rule:nonzero;fill:#4eb6ff;fill-opacity:1"/><path d="M492.434 1439.332c-8.567-15.305-18.196-30.227-25.61-46.113-12.61-26.86-21.37-55.067-20.504-85.2.868-33.792 19.735-50.738 53.43-50.16 23.781.48 45.828 8.184 68.258 14.73 23.492 6.837 46.98 13.766 70.762 19.446 8.277 2.024 17.617 1.445 26.183.195 19.16-2.89 29.074-15.984 33.602-33.89 5.582-21.852 4.425-44.188 3.754-66.426-1.157-38.125-3.176-76.25-2.602-114.371.867-52.375 10.496-103.398 26.668-153.266 14.73-45.441 33.504-89.054 60.941-128.332 7.414-10.687 16.368-20.601 26.09-29.265 13.094-11.555 25.512-7.801 30.23 8.953 3.274 11.742 4.43 24.164 5.872 36.39 2.504 20.024 4.332 40.047 6.836 60.075.48 4.043 2.312 7.988 4.043 11.742 4.238 8.86 12.226 12.422 20.601 7.414 10.11-5.969 19.063-13.863 28.496-20.89 1.446-1.06 2.985-1.927 4.43-2.887v73.164c-2.117-.192-4.14-.383-6.258-.575-15.883-1.445-31.383-.195-45.824 7.508-20.312 10.88-30.133 29.364-36.488 50.254-9.34 30.422-10.88 62-13.188 93.48-2.695 36.583-5.586 73.169-15.886 108.594-13.286 45.922-38.7 83.18-79.426 109.465-25.223 16.27-53.332 26.184-80.77 37.738-13.191 5.485-25.996 12.227-38.125 19.735-8.183 5.101-9.82 13.285-5.969 22.047 2.985 7.027 7.028 13.672 11.168 20.023 6.739 10.3 13.864 20.219 20.891 30.328-43.707.094-87.61.094-131.605.094m0 0" style="stroke:none;fill-rule:nonzero;fill:#bfe4ff;fill-opacity:1"/><path d="M-106.379 1000.332c12.805-3.562 25.414-7.894 38.317-10.398 46.113-8.856 91.167-4.524 134.78 13.187 19.157 7.8 38.317 15.406 57.762 22.242 28.692 10.106 56.993 6.832 84.336-5.008 24.934-10.78 49.29-22.914 74.13-34.175 23.683-10.688 48.136-18.871 74.417-18.485 21.95.29 42.07 6.258 57.766 22.817 16.27 17.136 14.633 39.375-3.852 54.105-13.77 10.973-30.039 16.172-46.5 20.988-28.402 8.375-57.09 15.692-85.203 24.836-32.152 10.496-57.472 30.23-72.683 61.04-12.707 25.703-35.043 36.87-61.23 43.32-23.876 5.875-47.942 11.648-69.99 23.203-5.679 2.984-11.07 6.45-15.98 10.492-16.464 13.48-20.316 30.809-8.472 48.524 9.336 13.957 21.37 26.183 32.636 38.796 9.82 10.973 20.7 20.989 29.942 32.442 11.36 14.058 11.55 29.652 2.117 45.152-2.793 4.621-5.68 9.34-8.762 13.77-6.836 9.722-10.109 20.215-7.316 32.058h-87.61c.196-1.254.29-2.504.485-3.754 3.465-21.183 5.004-42.457-1.445-63.254-5.586-18.195-11.938-36.101-18.293-54.105-11.168-31.48-9.914-61.902 10.207-89.242 17.422-23.684 36.004-46.598 55.836-68.356 34.562-38.027 76.824-66.136 121.593-90.496 12.32-6.738 24.743-13.285 37.063-19.926-2.695-.289-5.102.29-7.508.868-48.234 13.476-96.754 25.894-146.625 32.441-40.047 5.297-80.098 7.414-120.34 4.332-16.558-1.25-33.02-4.332-49.484-6.64-.094-26.864-.094-53.817-.094-80.774m0 0" style="stroke:none;fill-rule:nonzero;fill:#4eb6ff;fill-opacity:1"/><path d="M175.7 1439.332c1.827-14.246 3.85-28.496 5.39-42.84 1.445-13.191 3.656-26.379 3.465-39.566-.383-21.375-11.938-37.356-29.555-48.426-14.633-9.148-30.23-16.656-45.441-24.934-3.657-2.023-7.508-3.757-10.688-6.355-1.922-1.637-4.137-5.008-3.754-7.027.48-2.313 3.563-5.2 5.969-5.778 9.148-2.215 18.484-3.754 27.824-5.101 23.008-3.274 45.922-6.164 68.063-13.961 24.261-8.567 39.472-25.223 46.886-49.485 3.274-10.59 6.641-21.082 10.493-31.382 9.242-24.649 27.726-39.086 52.757-44.383 18.582-3.946 37.645-5.582 56.512-8.184 21.375-2.984 42.938-4.91 64.024-9.144 24.355-5.008 39.468-21.375 47.363-44.575 5.875-17.425 11.074-35.14 17.523-52.277 5.2-13.766 13.285-25.992 27.34-32.059 18.582-7.988 35.524-2.695 51.121 8.375 22.145 15.696 36.39 37.645 46.598 62.29 13.09 31.867 18.965 64.886 11.453 99.16-6.738 30.71-25.703 50.351-56.316 56.8-20.317 4.332-41.207 6.067-61.809 8.954-17.04 2.406-33.79 6.066-48.906 14.828-26.473 15.21-38.508 39.664-41.684 68.738-4.719 42.457 5.293 82.41 22.527 120.82 3.946 8.762 8.567 17.137 12.805 25.801H352.648c.383-16.078 5.004-31.191 10.782-46.016 8.855-22.816 14.632-46.308 17.52-70.664 2.023-16.656 4.527-33.406 8.28-49.68 8.184-34.847 27.727-63.632 51.989-89.05 24.066-25.223 49.676-49.098 74.511-73.649 6.934-6.835 13.48-14.152 21.375-22.527-2.601.387-3.082.387-3.464.578-2.024.961-4.141 1.828-6.067 2.985-42.36 25.703-87.511 45.152-134.972 59.496-27.633 8.375-50.739 23.394-69.606 45.73-13.48 15.98-28.883 30.324-43.902 44.863-11.649 11.262-24.356 21.372-36.004 32.54-12.805 12.226-17.715 27.628-15.406 45.054 1.347 9.82 3.18 19.543 5.199 29.266 6.258 30.422 9.726 60.75-1.73 90.883-18.196-.098-36.876-.098-55.454-.098M914.105 823.191c-14.921 1.926-20.601-1.832-26.664-18.68-5.968-16.652-9.629-34.273-15.984-50.734-3.465-8.953-9.047-18.004-16.074-24.453-12.805-12.035-28.403-9.242-43.422-3.37-18.965 7.413-35.426 18.968-49.484 33.312-24.547 24.933-48.133 50.925-71.817 76.73-17.328 18.867-33.695 38.797-55.164 53.238-8.183 5.485-17.617 10.301-27.148 12.516-17.813 4.137-32.254-5.008-38.606-22.914-7.414-20.602-5.39-41.399.867-61.809 12.32-40.144 37.739-71.144 71.047-95.5 21.95-16.078 45.824-29.363 68.258-44.672 11.457-7.796 23.008-16.171 32.156-26.378 19.254-21.563 19.735-45.922 3.559-70.086-10.395-15.5-24.645-27.246-38.602-39.278-21.183-18.293-41.398-37.547-53.433-63.445-12.516-26.957-16.75-54.777-7.125-83.563 10.3-30.808 36.297-39.761 63.543-22.144 19.926 12.805 34.27 31.191 48.039 49.965 28.207 38.512 50.734 80.293 71.531 123.133 4.137 8.57 9.047 16.945 14.438 24.84 10.59 15.5 21.375 18.195 37.835 9.335 9.63-5.293 18.582-11.84 27.918-17.808 1.348-.867 2.985-1.254 4.528-1.828v86.644c-15.79 2.117-31.578 2.887-47.367-.578-28.11-6.258-47.942-23.297-60.266-48.617-10.59-21.66-18.871-44.48-29.172-66.332-5.101-10.781-12.32-20.508-18.773-30.613-.578-.965-2.309-1.254-3.465-1.832-.192 1.253-.672 2.503-.48 3.66.867 4.43 1.636 8.855 2.886 13.093 7.606 25.317 15.887 50.348 22.723 75.86 5.484 20.508 6.258 41.496-.578 62.097-7.606 23.106-23.493 40.051-41.399 55.551-6.355 5.485-12.996 10.684-19.445 15.98 2.597.579 4.715.29 6.738-.288 30.805-10.11 61.422-21.18 92.613-30.04 23.204-6.546 46.79-5.773 68.547 6.454 9.434 5.293 18.196 11.84 27.34 17.808-.098 34.754-.098 69.797-.098 104.746M-106.379 78.043c34.274 3.656 72.203 27.148 71.336 77.594-.191 13.48-1.156 26.86-1.926 40.34-1.926 32.925 9.34 61.226 30.133 86.257 23.106 27.825 52.086 48.524 81.16 69.414 18.098 12.997 35.524 26.762 53.14 40.336 3.372 2.602 6.45 5.875 8.763 9.438 1.445 2.117 1.347 5.39 2.023 8.086-2.793.097-6.066 1.25-8.184.097-7.414-4.046-14.636-8.57-21.664-13.289-27.629-18.867-55.742-37.16-87.027-49.675-15.79-6.352-31.867-11.649-49.195-11.649-19.063.098-29.27 8.86-32.637 27.63-3.66 20.218.672 39.858 3.562 59.593a8398 8398 0 0 1 9.532 68.45c.289 2.022 0 4.237-.387 6.257-2.023 10.398-9.05 15.308-18.871 11.457-12.129-4.813-23.586-11.262-35.332-17.04-1.442-.675-2.887-1.444-4.234-2.116-.192-137.094-.192-274.184-.192-411.18m0 0" style="stroke:none;fill-rule:nonzero;fill:#4eb6ff;fill-opacity:1"/><path d="M794.73-4.754c38.508 0 77.016.098 115.528-.094 3.273 0 3.945.672 3.945 3.946-.098 64.504-.098 129.004-.098 193.507-1.25-.19-2.5-.19-3.753-.578-13.766-4.332-27.243-3.078-40.243 2.985-8.953 4.14-17.808 8.761-26.668 13.191-13.765 6.836-27.629 13.668-43.707 12.418-12.03-.96-20.89-9.82-20.504-21.758.29-8.086 1.157-16.367 3.563-24.066 6.547-21.277 4.426-41.3-6.645-60.555-5.293-9.34-10.492-18.773-15.02-28.402-15.593-33.117-8.566-60.844 20.509-81.735 4.234-3.273 8.761-5.968 13.093-8.859M702.309 1439.332c-.192-7.508-1.735-15.21-.387-22.332 2.984-15.79 14.73-25.031 28.98-29.172 18-5.297 36.871-7.797 55.164-12.035 12.418-2.887 25.125-5.488 36.68-10.59 19.543-8.762 28.016-26.957 31.48-46.691 4.91-27.246 7.895-54.782 11.747-82.121 5.101-36.68 11.453-73.168 31.093-105.516 4.91-7.988 11.266-15.016 16.946-22.527 0 109.078 0 218.25.093 327.328 0 3.273-.671 3.945-3.945 3.945-69.219-.289-138.535-.289-207.851-.289m0 0" style="stroke:none;fill-rule:nonzero;fill:#bfe4ff;fill-opacity:1"/><path d="M-106.379 1174.586c28.11-22.914 58.918-41.496 93.192-53.625 9.144-3.274 19.253-4.43 29.074-5.102 9.82-.578 15.02 6.739 10.59 15.594-4.528 9.05-10.59 17.524-17.329 25.031-18.39 20.7-37.933 40.34-56.03 61.325-17.813 20.699-29.845 44.77-29.942 72.687-.098 14.535 3.176 29.172 6.066 43.613 4.235 20.985 11.938 41.493 10.59 63.25-.867 14.055-4.332 28.016-6.645 41.973-11.84 0-23.777-.191-35.62.098-3.274.097-3.946-.676-3.946-3.95zm0 0" style="stroke:none;fill-rule:nonzero;fill:#4eb6ff;fill-opacity:1"/></g><mask id="a"><g filter="url(#c)"><path d="M0 0h810v1440H0z" style="fill:#000;fill-opacity:.4;stroke:none"/></g></mask></g></svg>